<svg width="24" height="38" viewBox="0 0 24 38" fill="none" xmlns="http://www.w3.org/2000/svg">
<path d="M0.648487 33.3405V37.1149C0.648487 37.4421 1.02446 37.6227 1.27837 37.4226L23.2901 20.2302C23.4771 20.0847 23.6284 19.8985 23.7325 19.6857C23.8366 19.4728 23.8907 19.2391 23.8907 19.0021C23.8907 18.7652 23.8366 18.5314 23.7325 18.3186C23.6284 18.1058 23.4771 17.9196 23.2901 17.7741L1.27837 0.581726C1.01958 0.381531 0.648487 0.562195 0.648487 0.889343V4.66376C0.648487 4.90302 0.76079 5.13251 0.946337 5.27899L18.5245 18.9997L0.946337 32.7253C0.76079 32.8718 0.648487 33.1013 0.648487 33.3405Z" fill="#226EC2"/>
</svg>
