<svg width="24" height="38" viewBox="0 0 24 38" fill="none" xmlns="http://www.w3.org/2000/svg">
<path d="M0.648365 4.65948V0.885067C0.648365 0.557919 1.02434 0.377255 1.27825 0.57745L23.29 17.7698C23.477 17.9153 23.6283 18.1015 23.7324 18.3143C23.8365 18.5272 23.8906 18.7609 23.8906 18.9979C23.8906 19.2348 23.8365 19.4686 23.7324 19.6814C23.6283 19.8942 23.477 20.0804 23.29 20.2259L1.27825 37.4183C1.01946 37.6185 0.648365 37.4378 0.648365 37.1107V33.3362C0.648365 33.097 0.760668 32.8675 0.946215 32.721L18.5243 19.0003L0.946215 5.27472C0.760668 5.12823 0.648365 4.89874 0.648365 4.65948Z" fill="#FFC918"/>
</svg>
