<svg width="24" height="38" viewBox="0 0 24 38" fill="none" xmlns="http://www.w3.org/2000/svg">
<path d="M23.3515 4.65948V0.885067C23.3515 0.557919 22.9755 0.377255 22.7216 0.57745L0.709909 17.7698C0.522889 17.9153 0.371559 18.1015 0.267462 18.3143C0.163366 18.5272 0.109253 18.7609 0.109253 18.9979C0.109253 19.2348 0.163366 19.4686 0.267462 19.6814C0.371559 19.8942 0.522889 20.0804 0.709909 20.2259L22.7216 37.4183C22.9804 37.6185 23.3515 37.4378 23.3515 37.1107V33.3362C23.3515 33.097 23.2392 32.8675 23.0537 32.721L5.47553 19.0003L23.0537 5.27472C23.2392 5.12823 23.3515 4.89874 23.3515 4.65948Z" fill="#226EC2"/>
</svg>
