<svg width="24" height="38" viewBox="0 0 24 38" fill="none" xmlns="http://www.w3.org/2000/svg">
<path d="M23.3516 33.3405V37.1149C23.3516 37.4421 22.9757 37.6227 22.7218 37.4226L0.710031 20.2302C0.523011 20.0847 0.371681 19.8985 0.267584 19.6857C0.163488 19.4728 0.109375 19.2391 0.109375 19.0021C0.109375 18.7652 0.163488 18.5314 0.267584 18.3186C0.371681 18.1058 0.523011 17.9196 0.710031 17.7741L22.7218 0.581726C22.9805 0.381531 23.3516 0.562195 23.3516 0.889343V4.66376C23.3516 4.90302 23.2393 5.13251 23.0538 5.27899L5.47566 18.9997L23.0538 32.7253C23.2393 32.8718 23.3516 33.1013 23.3516 33.3405Z" fill="#FFC918"/>
</svg>
