<svg width="70" height="70" viewBox="0 0 70 70" fill="none" xmlns="http://www.w3.org/2000/svg">
<path d="M20.9999 53.6666H16.3337V58.3328H20.9999V53.6666Z" fill="#FFD652"/>
<path d="M30.3339 53.6666H25.6677V58.3328H30.3339V53.6666Z" fill="#FFD652"/>
<path d="M35.5 62.4997V54.1666H39.1662V62.4997H35.5Z" stroke="#226EC2"/>
<path d="M20.9999 44.3334H16.3337V49.0003H20.9999V44.3334Z" fill="#FFD652"/>
<path d="M25.6661 25.6666H16.3337V30.3328H25.6661V25.6666Z" fill="#FFD652"/>
<path d="M30.3339 44.3334H25.6677V49.0003H30.3339V44.3334Z" fill="#FFD652"/>
<path d="M39.6662 44.3334H35V49.0003H39.6662V44.3334Z" fill="#FFD652"/>
<path d="M58.3325 53.6666H53.6663V58.3328H58.3325V53.6666Z" fill="#FFD652"/>
<path d="M58.3325 44.3334H53.6663V49.0003H58.3325V44.3334Z" fill="#FFD652"/>
<path d="M58.3325 35H53.6663V39.6669H58.3325V35Z" fill="#FFD652"/>
<path d="M58.3325 25.6666H53.6663V30.3328H58.3325V25.6666Z" fill="#FFD652"/>
<path d="M58.3325 16.3334H53.6663V21.0003H58.3325V16.3334Z" fill="#FFD652"/>
<path d="M44.3324 35.5H44.8324V35V7.50002H62.5V62.5H58.8324V11.6669V11.1669H58.3324H49H48.5V11.6669V62.5H44.8338V39.6669V39.1669H44.3338H11.6676H11.1676V39.6669V62.5H7.5V7.50002H11.1662V16.3331V16.8331H11.6662H16.3338H16.8338V16.3331V12.1669H20.5V16.3331V16.8331H21H34.5V35V35.5H35H44.3324ZM30.3338 35.5H30.8338V35V21V20.5H30.3338H11.6676H11.1676V21V35V35.5H11.6676H30.3338Z" stroke="#226EC2"/>
</svg>
