<svg width="70" height="70" viewBox="0 0 70 70" fill="none" xmlns="http://www.w3.org/2000/svg">
<path d="M35.0001 16.3334H30.3339V21.0003H35.0001V16.3334Z" fill="#FFD652"/>
<path d="M35.0001 25.6666H30.3339V30.3335H35.0001V25.6666Z" fill="#FFD652"/>
<path d="M53.6676 25.6666H49V30.3335H53.6676V25.6666Z" fill="#FFD652"/>
<path d="M53.6676 35H49V39.6669H53.6676V35Z" fill="#FFD652"/>
<path d="M53.6676 44.3334H49V49.0003H53.6676V44.3334Z" fill="#FFD652"/>
<path d="M53.6676 53.6666H49V58.3328H53.6676V53.6666Z" fill="#FFD652"/>
<path d="M35.0001 35H30.3339V39.6669H35.0001V35Z" fill="#FFD652"/>
<path d="M35.0001 44.3334H30.3339V49.0003H35.0001V44.3334Z" fill="#FFD652"/>
<path d="M25.6676 16.3334H21V21.0003H25.6676V16.3334Z" fill="#FFD652"/>
<path d="M25.6676 25.6666H21V30.3328H25.6676V25.6666Z" fill="#FFD652"/>
<path d="M16.3338 44.3334H11.6676V49.0003H16.3338V44.3334Z" fill="#FFD652"/>
<path d="M16.3338 53.6666H11.6676V58.3328H16.3338V53.6666Z" fill="#FFD652"/>
<path d="M11.1676 39.6669V62.5H7.5V35.5H16.3338H16.8338V35V7.5H53.1676V16.3331V16.8331H53.6676H62.5V62.5H58.8338V21V20.5H58.3338H44.3338H43.8338V21V62.5H40.1676V16.8331H49H49.5V16.3331V11.6669V11.1669H49H21H20.5V11.6669V35V35.5H21H25.1676V62.5H21.5V39.6669V39.1669H21H11.6676H11.1676V39.6669Z" stroke="#226EC2"/>
<path d="M35.0001 53.6666H30.3339V58.3328H35.0001V53.6666Z" fill="#FFD652"/>
</svg>
