<svg width="70" height="70" viewBox="0 0 70 70" fill="none" xmlns="http://www.w3.org/2000/svg">
<path d="M9.33313 53.6676V63H14V58.3338H18.6669V63H23.3331V58.3338H28V63H32.6669V58.3338H37.3331V63H42V58.3338H46.6669V63H51.3331V58.3338H56V63H60.6669V53.6676H9.33313Z" fill="#FFD652"/>
<path d="M23.3331 16.3331V11.6669H46.6669V16.3331H51.3331V7H18.6669V16.3331H23.3331Z" fill="#FFD652"/>
<path d="M14 48.5003H13.5V49.0003V53.1672H9.83313V16.8334H60.1669V53.1679H56.5V49.0003V48.5003H56H51.3331H50.8331V49.0003V53.1679H47.1669V49.0003V48.5003H46.6669H42H41.5V49.0003V53.1679H37.8331V49.0003V48.5003H37.3331H32.6669H32.1669V49.0003V53.1679H28.5V49.0003V48.5003H28H23.3331H22.8331V49.0003V53.1679H19.1669V49.0003V48.5003H18.6669H14ZM18.6669 44.8341H19.1669V44.3341V39.6679V39.1679H18.6669H14H13.5V39.6679V44.3341V44.8341H14H18.6669ZM18.6669 35.5003H19.1669V35.0003V30.3334V29.8334H18.6669H14H13.5V30.3334V35.0003V35.5003H14H18.6669ZM18.6669 26.1672H19.1669V25.6672V21.0003V20.5003H18.6669H14H13.5V21.0003V25.6672V26.1672H14H18.6669ZM28 44.8341H28.5V44.3341V39.6679V39.1679H28H23.3331H22.8331V39.6679V44.3341V44.8341H23.3331H28ZM28 35.5003H28.5V35.0003V30.3334V29.8334H28H23.3331H22.8331V30.3334V35.0003V35.5003H23.3331H28ZM28 26.1672H28.5V25.6672V21.0003V20.5003H28H23.3331H22.8331V21.0003V25.6672V26.1672H23.3331H28ZM37.3331 44.8341H37.8331V44.3341V39.6679V39.1679H37.3331H32.6669H32.1669V39.6679V44.3341V44.8341H32.6669H37.3331ZM37.3331 35.5003H37.8331V35.0003V30.3334V29.8334H37.3331H32.6669H32.1669V30.3334V35.0003V35.5003H32.6669H37.3331ZM37.3331 26.1672H37.8331V25.6672V21.0003V20.5003H37.3331H32.6669H32.1669V21.0003V25.6672V26.1672H32.6669H37.3331ZM46.6669 44.8341H47.1669V44.3341V39.6679V39.1679H46.6669H42H41.5V39.6679V44.3341V44.8341H42H46.6669ZM46.6669 35.5003H47.1669V35.0003V30.3334V29.8334H46.6669H42H41.5V30.3334V35.0003V35.5003H42H46.6669ZM46.6669 26.1672H47.1669V25.6672V21.0003V20.5003H46.6669H42H41.5V21.0003V25.6672V26.1672H42H46.6669ZM56 44.8341H56.5V44.3341V39.6679V39.1679H56H51.3331H50.8331V39.6679V44.3341V44.8341H51.3331H56ZM56 35.5003H56.5V35.0003V30.3334V29.8334H56H51.3331H50.8331V30.3334V35.0003V35.5003H51.3331H56ZM56 26.1672H56.5V25.6672V21.0003V20.5003H56H51.3331H50.8331V21.0003V25.6672V26.1672H51.3331H56Z" stroke="#226EC2"/>
</svg>
