<svg width="70" height="70" viewBox="0 0 70 70" fill="none" xmlns="http://www.w3.org/2000/svg">
<path d="M29.1662 47.834H24.5V52.5009H29.1662V47.834Z" fill="#FFD652"/>
<path d="M29.1662 39.666H24.5V44.3322H29.1662V39.666Z" fill="#FFD652"/>
<path d="M29.1662 31.5H24.5V36.1669H29.1662V31.5Z" fill="#FFD652"/>
<path d="M45.4999 47.834H40.8323V52.5009H45.4999V47.834Z" fill="#FFD652"/>
<path d="M45.4999 39.666H40.8323V44.3322H45.4999V39.666Z" fill="#FFD652"/>
<path d="M45.4999 31.5H40.8323V36.1669H45.4999V31.5Z" fill="#FFD652"/>
<path d="M37.3332 39.666H32.6663V44.3322H37.3332V39.666Z" fill="#FFD652"/>
<path d="M37.3332 31.5H32.6663V36.1669H37.3332V31.5Z" fill="#FFD652"/>
<path d="M33.1663 27.5009V23.834H36.8332V27.5009H33.1663Z" stroke="#226EC2"/>
<path d="M53.1669 29.9493V30.2376L53.4165 30.382L62.5 35.6378V60.5H7.5V35.6378L16.5835 30.382L16.8331 30.2376V29.9493V23.8379V22.971L16.0827 23.4052L12.1669 25.6707V20.7884L21.2504 15.5327L21.2504 15.5326L25.9173 12.833L25.9173 12.8329L35 7.57766L57.8331 20.7884V25.6707L53.9173 23.4052L53.1669 22.971V23.8379V29.9493ZM35.2504 12.6048L35 12.46L34.7496 12.6048L20.7503 20.7047L20.5007 20.8491V21.1375V55.599V56.099H21.0007H32.6655H33.1655V55.599V47.9992H36.8324V55.599V56.099H37.3324H49H49.5V55.599V21.1375V20.8491L49.2504 20.7047L35.2504 12.6048ZM16.3331 56.099H16.8331V55.599V35.9877V35.1209L16.0828 35.5549L11.4152 38.2546L11.1655 38.399V38.6874V55.599V56.099H11.6655H16.3331ZM58.3331 56.099H58.8331V55.599V38.6874V38.399L58.5835 38.2546L53.9173 35.5549L53.1669 35.1208V35.9877V55.599V56.099H53.6669H58.3331Z" stroke="#226EC2"/>
</svg>
