<svg width="43" height="50" viewBox="0 0 43 50" fill="none" xmlns="http://www.w3.org/2000/svg">
<path d="M8 7.5H14.25C14.25 5.51088 15.0402 3.60322 16.4467 2.1967C17.8532 0.790177 19.7609 0 21.75 0C23.7391 0 25.6468 0.790177 27.0533 2.1967C28.4598 3.60322 29.25 5.51088 29.25 7.5H35.5C37.4891 7.5 39.3968 8.29018 40.8033 9.6967C42.2098 11.1032 43 13.0109 43 15V42.5C43 44.4891 42.2098 46.3968 40.8033 47.8033C39.3968 49.2098 37.4891 50 35.5 50H8C6.01088 50 4.10322 49.2098 2.6967 47.8033C1.29018 46.3968 0.5 44.4891 0.5 42.5V15C0.5 13.0109 1.29018 11.1032 2.6967 9.6967C4.10322 8.29018 6.01088 7.5 8 7.5ZM8 10C6.67392 10 5.40215 10.5268 4.46447 11.4645C3.52678 12.4021 3 13.6739 3 15V42.5C3 43.8261 3.52678 45.0979 4.46447 46.0355C5.40215 46.9732 6.67392 47.5 8 47.5H35.5C36.8261 47.5 38.0978 46.9732 39.0355 46.0355C39.9732 45.0979 40.5 43.8261 40.5 42.5V15C40.5 13.6739 39.9732 12.4021 39.0355 11.4645C38.0978 10.5268 36.8261 10 35.5 10H33V17.5H10.5V10H8ZM13 15H30.5V10H13V15ZM21.75 2.5C20.4239 2.5 19.1521 3.02678 18.2145 3.96447C17.2768 4.90215 16.75 6.17392 16.75 7.5H26.75C26.75 6.17392 26.2232 4.90215 25.2855 3.96447C24.3478 3.02678 23.0761 2.5 21.75 2.5ZM35.875 24L18 41.875L10 33.875L11.7675 32.1075L18 38.34L34.105 22.2325L35.8725 24H35.875Z" fill="#FFD652"/>
</svg>
