<svg width="43" height="44" viewBox="0 0 43 44" fill="none" xmlns="http://www.w3.org/2000/svg">
<path d="M42.2651 11.1036L36.4351 16.9336L27.0601 7.55861L32.8901 1.72861C33.122 1.49624 33.3975 1.3119 33.7008 1.18612C34.0041 1.06035 34.3292 0.995605 34.6576 0.995605C34.9859 0.995605 35.311 1.06035 35.6143 1.18612C35.9176 1.3119 36.1931 1.49624 36.4251 1.72861L42.2651 7.56861C42.4974 7.80058 42.6818 8.07609 42.8075 8.37938C42.9333 8.68266 42.9981 9.00777 42.9981 9.33611C42.9981 9.66444 42.9333 9.98955 42.8075 10.2928C42.6818 10.5961 42.4974 10.8716 42.2651 11.1036ZM0.497559 34.1186L25.6601 8.95861L35.0351 18.3336L9.87256 43.4936H0.500058V34.1186H0.497559ZM34.5526 3.60861L30.7026 7.45611L36.5451 13.2936L40.3901 9.44611L34.5526 3.60861ZM31.3926 18.4461L25.5551 12.6061L3.00006 35.1586V40.9986H8.84006L31.3926 18.4461Z" fill="#FFD652"/>
</svg>
