<svg width="48" height="48" viewBox="0 0 48 48" fill="none" xmlns="http://www.w3.org/2000/svg">
<path d="M43.75 48C45.8175 48 47.5 46.3175 47.5 44.25V35.5C47.5 33.4325 45.8175 31.75 43.75 31.75C40.825 31.75 37.95 31.29 35.2 30.3825C34.5426 30.1749 33.8413 30.1497 33.1707 30.3095C32.5001 30.4694 31.8855 30.8082 31.3925 31.29L27.7925 34.89C21.5703 31.512 16.4601 26.4036 13.08 20.1825L16.65 16.59C17.68 15.635 18.05 14.1825 17.61 12.785C16.7043 10.0307 16.2452 7.14933 16.25 4.25C16.25 2.1825 14.5675 0.5 12.5 0.5H3.75C1.6825 0.5 0 2.1825 0 4.25C0 28.375 19.625 48 43.75 48ZM3.75 3H12.5C12.8315 3 13.1495 3.1317 13.3839 3.36612C13.6183 3.60054 13.75 3.91848 13.75 4.25C13.75 7.4425 14.25 10.5775 15.2325 13.55C15.3047 13.7657 15.3131 13.9976 15.2568 14.218C15.2005 14.4384 15.0818 14.6379 14.915 14.7925L10.025 19.7075C14.1175 27.7775 20.1625 33.8225 28.27 37.95L33.1425 33.075C33.3088 32.9105 33.5166 32.7943 33.7439 32.7388C33.9711 32.6833 34.2091 32.6906 34.4325 32.76C37.4225 33.75 40.5575 34.25 43.75 34.25C44.4375 34.25 45 34.8125 45 35.5V44.25C45 44.9375 44.4375 45.5 43.75 45.5C21.005 45.5 2.5 26.995 2.5 4.25C2.5 3.91848 2.6317 3.60054 2.86612 3.36612C3.10054 3.1317 3.41848 3 3.75 3Z" fill="#FFD652"/>
</svg>
