<svg width="170" height="40" viewBox="0 0 170 40" fill="none" xmlns="http://www.w3.org/2000/svg">
<path d="M33.6111 8.10453C35.4973 8.16649 36.6987 8.19748 37.2151 8.19748C37.9187 8.19748 38.7084 8.17811 39.5842 8.13938C40.5123 8.1084 41.0849 8.09291 41.302 8.09291C42.3499 8.09291 43.2145 8.20522 43.8956 8.42986C44.5842 8.65449 45.1531 9.06502 45.6022 9.66146C46.0513 10.2579 46.2759 10.9783 46.2759 11.8226C46.2759 12.5197 46.1187 13.1936 45.8043 13.8443C45.4899 14.4949 45.052 15.0488 44.4907 15.5058C43.9293 15.9628 43.3604 16.292 42.7841 16.4934C42.2077 16.687 41.6089 16.7839 40.9876 16.7839C40.5236 16.7839 40.0071 16.7296 39.4382 16.6212L39.2473 15.9124L39.3484 15.7963C39.9098 15.9279 40.3664 15.9938 40.7182 15.9938C41.6987 15.9938 42.4847 15.6607 43.076 14.9945C43.6748 14.3206 43.9742 13.4608 43.9742 12.4151C43.9742 11.3617 43.6636 10.5213 43.0423 9.89384C42.4285 9.26642 41.4966 8.95271 40.2466 8.95271C39.5655 8.95271 38.817 9.08439 38.0011 9.34775C37.9337 9.94419 37.9 11.3849 37.9 13.67V19.0496L37.9113 21.3152C37.9187 22.1905 37.9412 22.756 37.9786 23.0116C38.016 23.2672 38.0684 23.4376 38.1358 23.5228C38.2107 23.608 38.3491 23.6816 38.5512 23.7436C38.7533 23.7978 39.2511 23.8404 40.0445 23.8714L40.1343 23.9411V24.5221L40.0445 24.615C38.1358 24.553 37.0617 24.5221 36.8222 24.5221C36.5677 24.5221 35.4973 24.553 33.6111 24.615L33.5212 24.5221V23.9411L33.6111 23.8714C34.3072 23.8404 34.7713 23.8017 35.0033 23.7552C35.2353 23.7087 35.3888 23.6506 35.4636 23.5809C35.546 23.5035 35.6096 23.3447 35.6545 23.1046C35.7069 22.8644 35.7368 22.33 35.7443 21.5011L35.7555 19.0496V13.67L35.7331 11.4043C35.7256 10.5213 35.7031 9.95194 35.6657 9.69632C35.6358 9.4407 35.5834 9.27029 35.5085 9.18509C35.4412 9.09988 35.3064 9.03017 35.1043 8.97595C34.9022 8.92172 34.4045 8.87912 33.6111 8.84814L33.5212 8.76681V8.18586L33.6111 8.10453Z" fill="white"/>
<path d="M62.5111 22.5585L62.0844 23.639C60.4227 24.5143 58.6487 24.952 56.7625 24.952C54.0604 24.952 51.8635 24.158 50.1719 22.5701C48.4877 20.9822 47.6456 18.9062 47.6456 16.3423C47.6456 14.5763 48.0648 13.0348 48.9031 11.718C49.749 10.3935 50.8605 9.40585 52.2378 8.75519C53.6225 8.09678 55.1757 7.76758 56.8972 7.76758C57.8927 7.76758 58.877 7.87602 59.8501 8.09291C60.8232 8.30979 61.6353 8.56928 62.2865 8.87138L62.3651 8.98756C62.1929 9.42134 62.032 10.4942 61.8823 12.206L61.8037 12.299H61.276L61.1862 12.206L61.0739 10.2308C60.5275 9.78152 59.8651 9.43296 59.0866 9.18509C58.3157 8.92947 57.511 8.80166 56.6727 8.80166C55.4077 8.80166 54.2737 9.08439 53.2707 9.64984C52.2677 10.2076 51.4892 11.0209 50.9353 12.0898C50.3814 13.151 50.1045 14.4523 50.1045 15.9938C50.1045 17.543 50.4301 18.9024 51.0813 20.072C51.7325 21.2417 52.6195 22.1402 53.7423 22.7676C54.8725 23.395 56.1899 23.7087 57.6944 23.7087C58.3606 23.7087 59.0005 23.6429 59.6143 23.5112C60.2281 23.3795 60.7371 23.2169 61.1413 23.0232C61.553 22.8296 61.9459 22.5933 62.3202 22.3145L62.5111 22.5585Z" fill="white"/>
<path d="M68.5852 24.5221V23.9411L68.675 23.8714C69.2888 23.8482 69.7043 23.7746 69.9213 23.6506C70.1384 23.5267 70.449 23.1743 70.8532 22.5933C71.452 21.7258 72.702 19.8667 74.6033 17.0162L77.6347 12.5313C78.5554 11.1758 79.0906 10.3702 79.2403 10.1146C79.3376 9.94419 79.3862 9.79314 79.3862 9.66146C79.3862 9.41359 79.2365 9.23544 78.9371 9.12699C78.6452 9.0108 77.8031 8.91785 76.4109 8.84814L76.3211 8.76681V8.18586L76.4109 8.10453C76.5456 8.10453 76.976 8.12002 77.7021 8.151C78.4281 8.18199 79.0831 8.19748 79.6669 8.19748C80.2583 8.19748 80.8982 8.18199 81.5869 8.151L82.8556 8.10453L82.9342 8.18586C82.9117 8.51894 82.8968 8.94109 82.8893 9.45232L82.8556 11.3811V19.0496C82.8556 19.6847 82.8631 20.4516 82.878 21.3501C82.893 22.2486 82.9155 22.818 82.9454 23.0581C82.9753 23.2905 83.0352 23.457 83.125 23.5577C83.2149 23.6506 83.3908 23.7204 83.6527 23.7668C83.9222 23.8133 84.3713 23.8482 85.0001 23.8714L85.0899 23.9411V24.5221L85.0001 24.615C84.9477 24.615 84.4574 24.5995 83.5292 24.5685C82.6385 24.5376 82.0472 24.5221 81.7553 24.5221C81.5981 24.5221 80.5352 24.553 78.5666 24.615L78.4768 24.5221V23.9411L78.5666 23.8714C79.2103 23.8482 79.6669 23.8133 79.9364 23.7668C80.2059 23.7204 80.3818 23.6468 80.4641 23.5461C80.5464 23.4376 80.5988 23.2633 80.6213 23.0232C80.6512 22.7754 80.6737 22.1905 80.6886 21.2688C80.7036 20.3393 80.7111 19.5995 80.7111 19.0496V9.60337H80.408L73.3458 20.9899C72.5598 22.2602 72.1481 22.9574 72.1107 23.0813C72.0733 23.1975 72.0546 23.2905 72.0546 23.3602C72.0546 23.6623 72.2829 23.8172 72.7395 23.8249L73.5703 23.8714L73.6601 23.9411V24.5221L73.5703 24.615C72.8143 24.553 72.077 24.5221 71.3585 24.5221C70.5052 24.5221 69.6107 24.553 68.675 24.615L68.5852 24.5221Z" fill="white"/>
<path d="M86.2463 24.5221V23.9411L86.3362 23.8714C86.9948 23.8482 87.4514 23.8133 87.7059 23.7668C87.9679 23.7204 88.1401 23.6468 88.2224 23.5461C88.3047 23.4454 88.3609 23.2827 88.3908 23.0581C88.4208 22.8257 88.4432 22.2486 88.4582 21.3269C88.4732 20.3973 88.4806 19.6382 88.4806 19.0496V13.67C88.4806 12.8644 88.4694 12.0085 88.447 11.1022C88.432 10.1959 88.402 9.66146 88.3571 9.4988C88.3197 9.32839 88.2598 9.20832 88.1775 9.13861C88.1026 9.06115 87.9455 8.99918 87.7059 8.95271C87.4739 8.90623 87.0173 8.87138 86.3362 8.84814L86.2463 8.76681V8.18586L86.3362 8.10453C86.3736 8.10453 86.8639 8.12002 87.807 8.151C88.6977 8.18199 89.289 8.19748 89.581 8.19748C89.7606 8.19748 90.8235 8.16649 92.7696 8.10453L92.8594 8.18586V8.76681L92.7696 8.84814C92.1109 8.87138 91.6506 8.90623 91.3886 8.95271C91.1341 8.99918 90.9657 9.07277 90.8834 9.17347C90.801 9.26642 90.7449 9.42521 90.7149 9.64984C90.685 9.87448 90.6625 10.4632 90.6476 11.4159C90.6326 12.3687 90.6251 13.12 90.6251 13.67V22.5933L90.7935 22.6747C92.3729 20.3199 94.1618 17.5159 96.1604 14.2626C98.1589 11.0093 99.3827 8.95658 99.8318 8.10453C100.618 8.16649 101.348 8.19748 102.021 8.19748C102.785 8.19748 103.511 8.16649 104.199 8.10453L104.289 8.18586V8.76681L104.199 8.84814C103.466 8.87138 102.987 8.91011 102.762 8.96433C102.545 9.0108 102.399 9.07277 102.324 9.15023C102.249 9.22769 102.193 9.35937 102.156 9.54527C102.119 9.73118 102.092 10.316 102.077 11.2997C102.062 12.2835 102.055 13.0736 102.055 13.67V19.0496C102.055 19.6847 102.062 20.4554 102.077 21.3617C102.092 22.2602 102.115 22.8257 102.145 23.0581C102.175 23.2905 102.235 23.457 102.324 23.5577C102.414 23.6506 102.59 23.7204 102.852 23.7668C103.122 23.8133 103.571 23.8443 104.199 23.8598L104.289 23.9411V24.5221L104.199 24.615C104.162 24.615 103.672 24.5995 102.729 24.5685C101.86 24.5376 101.269 24.5221 100.955 24.5221C100.752 24.5221 99.6896 24.553 97.7659 24.615L97.6761 24.5221V23.9411L97.7659 23.8598C98.4246 23.8443 98.8812 23.8133 99.1357 23.7668C99.3977 23.7126 99.5698 23.639 99.6522 23.5461C99.7345 23.4531 99.7906 23.2943 99.8206 23.0697C99.8505 22.8373 99.873 22.2486 99.8879 21.3036C99.9029 20.3509 99.9104 19.5995 99.9104 19.0496L99.9216 10.3818L99.6971 10.3005C99.0459 11.2842 97.5339 13.6506 95.1611 17.3997L90.6476 24.615C90.0113 24.553 89.2741 24.5221 88.4357 24.5221C87.8519 24.5221 87.152 24.553 86.3362 24.615L86.2463 24.5221Z" fill="white"/>
<path d="M109.241 15.7382C109.248 15.3896 109.252 15.1921 109.252 15.1456C109.252 15.0681 109.248 14.9519 109.241 14.797L109.398 14.646C109.824 14.6925 110.214 14.7157 110.565 14.7157C111.277 14.7157 111.845 14.6072 112.272 14.3904C112.699 14.1657 113.047 13.8017 113.316 13.2982C113.586 12.7947 113.72 12.2138 113.72 11.5553C113.72 10.6723 113.466 9.96743 112.957 9.4407C112.448 8.91398 111.696 8.65062 110.7 8.65062C109.727 8.65062 108.949 8.92172 108.365 9.46394C107.781 10.0062 107.381 10.8543 107.163 12.0085L107.04 12.1363H106.86L106.737 12.0085C106.699 11.1332 106.64 10.285 106.557 9.46394C107.298 8.89849 108.039 8.49957 108.78 8.26719C109.529 8.03481 110.363 7.91862 111.284 7.91862C112.818 7.91862 113.986 8.19361 114.787 8.74357C115.588 9.28578 115.988 10.0797 115.988 11.1254C115.988 12.1014 115.659 12.9225 115 13.5887C114.342 14.2548 113.451 14.7079 112.328 14.9481V15.1456C113.683 15.1456 114.705 15.2695 115.393 15.5174C116.089 15.7653 116.636 16.2107 117.033 16.8536C117.429 17.4965 117.628 18.2672 117.628 19.1657C117.628 20.7692 117.051 22.1092 115.899 23.1859C114.746 24.2626 113.114 24.8009 111.003 24.8009C110.03 24.8009 109.151 24.6963 108.365 24.4872C107.586 24.2703 106.901 23.8908 106.31 23.3486C106.37 22.4578 106.4 21.8303 106.4 21.4663C106.4 21.2804 106.389 20.6801 106.366 19.6654L106.815 19.4911L106.939 19.5956C107.283 21.1293 107.766 22.2409 108.387 22.9303C109.016 23.6119 109.881 23.9527 110.981 23.9527C111.774 23.9527 112.478 23.7668 113.092 23.395C113.705 23.0155 114.181 22.4578 114.518 21.7219C114.854 20.9783 115.023 20.2037 115.023 19.3981C115.023 18.2672 114.705 17.3687 114.068 16.7025C113.44 16.0286 112.455 15.6917 111.116 15.6917C110.562 15.6917 109.989 15.7614 109.398 15.9008L109.241 15.7382Z" fill="white"/>
<path d="M119.39 24.5221V23.9411L119.48 23.8714C120.139 23.8482 120.595 23.8133 120.85 23.7668C121.112 23.7204 121.284 23.6468 121.366 23.5461C121.449 23.4454 121.505 23.2827 121.535 23.0581C121.565 22.8257 121.587 22.2486 121.602 21.3269C121.617 20.3973 121.625 19.6382 121.625 19.0496V13.67C121.625 12.8644 121.613 12.0085 121.591 11.1022C121.576 10.1959 121.546 9.66146 121.501 9.4988C121.464 9.32839 121.404 9.20832 121.322 9.13861C121.247 9.06115 121.09 8.99918 120.85 8.95271C120.618 8.90623 120.161 8.87138 119.48 8.84814L119.39 8.76681V8.18586L119.48 8.10453C119.518 8.10453 120.008 8.12002 120.951 8.151C121.842 8.18199 122.433 8.19748 122.725 8.19748C122.905 8.19748 123.968 8.16649 125.914 8.10453L126.003 8.18586V8.76681L125.914 8.84814C125.255 8.87138 124.795 8.90623 124.533 8.95271C124.278 8.99918 124.11 9.07277 124.027 9.17347C123.945 9.26642 123.889 9.42521 123.859 9.64984C123.829 9.87448 123.807 10.4632 123.792 11.4159C123.777 12.3687 123.769 13.12 123.769 13.67V22.5933L123.938 22.6747C125.517 20.3199 127.306 17.5159 129.304 14.2626C131.303 11.0093 132.527 8.95658 132.976 8.10453C133.762 8.16649 134.492 8.19748 135.165 8.19748C135.929 8.19748 136.655 8.16649 137.343 8.10453L137.433 8.18586V8.76681L137.343 8.84814C136.61 8.87138 136.131 8.91011 135.906 8.96433C135.689 9.0108 135.543 9.07277 135.468 9.15023C135.394 9.22769 135.337 9.35937 135.3 9.54527C135.263 9.73118 135.236 10.316 135.221 11.2997C135.206 12.2835 135.199 13.0736 135.199 13.67V19.0496C135.199 19.6847 135.206 20.4554 135.221 21.3617C135.236 22.2602 135.259 22.8257 135.289 23.0581C135.319 23.2905 135.379 23.457 135.468 23.5577C135.558 23.6506 135.734 23.7204 135.996 23.7668C136.266 23.8133 136.715 23.8443 137.343 23.8598L137.433 23.9411V24.5221L137.343 24.615C137.306 24.615 136.816 24.5995 135.873 24.5685C135.004 24.5376 134.413 24.5221 134.099 24.5221C133.897 24.5221 132.834 24.553 130.91 24.615L130.82 24.5221V23.9411L130.91 23.8598C131.569 23.8443 132.025 23.8133 132.28 23.7668C132.542 23.7126 132.714 23.639 132.796 23.5461C132.879 23.4531 132.935 23.2943 132.965 23.0697C132.995 22.8373 133.017 22.2486 133.032 21.3036C133.047 20.3509 133.054 19.5995 133.054 19.0496L133.066 10.3818L132.841 10.3005C132.19 11.2842 130.678 13.6506 128.305 17.3997L123.792 24.615C123.155 24.553 122.418 24.5221 121.58 24.5221C120.996 24.5221 120.296 24.553 119.48 24.615L119.39 24.5221Z" fill="white"/>
<path d="M138.657 8.10453C140.566 8.16649 141.636 8.19748 141.868 8.19748C142.115 8.19748 143.189 8.16649 145.091 8.10453L145.18 8.18586V8.76681L145.091 8.84814C144.574 8.86363 144.174 8.88687 143.889 8.91785C143.612 8.94884 143.41 9.00693 143.283 9.09214C143.156 9.17734 143.07 9.37874 143.025 9.69632C142.987 10.0062 142.968 10.4399 142.968 10.9976L142.946 13.67V15.2966C144.585 15.3431 146.138 15.3664 147.605 15.3664C149.612 15.3664 151.138 15.3431 152.186 15.2966V13.67L152.164 11.4043C152.156 10.5213 152.134 9.95194 152.097 9.69632C152.059 9.4407 152.007 9.27029 151.939 9.18509C151.872 9.09988 151.737 9.03017 151.535 8.97595C151.333 8.92172 150.832 8.87912 150.031 8.84814L149.952 8.76681V8.18586L150.031 8.10453C151.947 8.16649 153.021 8.19748 153.253 8.19748C153.508 8.19748 154.582 8.16649 156.475 8.10453L156.565 8.18586V8.76681L156.475 8.84814C155.951 8.86363 155.547 8.88687 155.263 8.91785C154.986 8.94884 154.784 9.00693 154.656 9.09214C154.529 9.17734 154.447 9.37874 154.409 9.69632C154.372 10.0062 154.35 10.4399 154.342 10.9976L154.32 13.67V19.0496L154.342 21.3152C154.35 22.1905 154.372 22.756 154.409 23.0116C154.447 23.2672 154.499 23.4376 154.567 23.5228C154.642 23.608 154.776 23.6816 154.971 23.7436C155.173 23.7978 155.674 23.8404 156.475 23.8714L156.565 23.9411V24.5221L156.475 24.615C154.559 24.553 153.485 24.5221 153.253 24.5221C153.013 24.5221 151.939 24.553 150.031 24.615L149.952 24.5221V23.9411L150.031 23.8714C150.734 23.8404 151.202 23.8017 151.434 23.7552C151.666 23.7087 151.82 23.6506 151.894 23.5809C151.969 23.5035 152.033 23.3447 152.085 23.1046C152.138 22.8644 152.164 22.33 152.164 21.5011L152.186 19.0496V16.4004C149.971 16.354 148.418 16.3307 147.527 16.3307C146.614 16.3307 145.087 16.354 142.946 16.4004V19.0496L142.957 21.3152C142.965 22.1905 142.987 22.756 143.025 23.0116C143.062 23.2672 143.114 23.4376 143.182 23.5228C143.257 23.608 143.395 23.6816 143.597 23.7436C143.799 23.7978 144.297 23.8404 145.091 23.8714L145.18 23.9411V24.5221L145.091 24.615C143.182 24.553 142.108 24.5221 141.868 24.5221C141.636 24.5221 140.566 24.553 138.657 24.615L138.567 24.5221V23.9411L138.657 23.8714C139.353 23.8404 139.817 23.8017 140.049 23.7552C140.281 23.7087 140.435 23.6506 140.51 23.5809C140.592 23.5035 140.656 23.3447 140.7 23.1046C140.753 22.8644 140.783 22.33 140.79 21.5011L140.802 19.0496V13.67L140.779 11.4043C140.772 10.5213 140.749 9.95194 140.712 9.69632C140.682 9.4407 140.629 9.27029 140.555 9.18509C140.487 9.09988 140.352 9.03017 140.15 8.97595C139.948 8.92172 139.45 8.87912 138.657 8.84814L138.567 8.76681V8.18586L138.657 8.10453Z" fill="white"/>
<path d="M161.966 9.11537V19.0496C161.966 19.646 161.973 20.4051 161.988 21.3269C162.003 22.2486 162.026 22.8257 162.055 23.0581C162.085 23.2905 162.142 23.457 162.224 23.5577C162.314 23.6506 162.49 23.7204 162.752 23.7668C163.021 23.8133 163.474 23.8482 164.11 23.8714L164.2 23.9411V24.5221L164.11 24.615C162.92 24.553 161.838 24.5221 160.865 24.5221C159.825 24.5221 158.762 24.553 157.677 24.615L157.587 24.5221V23.9411L157.677 23.8714C158.335 23.8482 158.792 23.8133 159.046 23.7668C159.308 23.7204 159.481 23.6468 159.563 23.5461C159.645 23.4454 159.701 23.2827 159.731 23.0581C159.761 22.8257 159.784 22.2486 159.799 21.3269C159.814 20.3973 159.821 19.6382 159.821 19.0496V13.67C159.821 12.8799 159.81 12.0317 159.788 11.1254C159.773 10.2114 159.743 9.66921 159.698 9.4988C159.66 9.32839 159.6 9.20832 159.518 9.13861C159.443 9.06115 159.29 9.00306 159.058 8.96433C158.833 8.91785 158.373 8.87912 157.677 8.84814L157.587 8.76681V8.18586L157.677 8.10453C158.732 8.16649 161.573 8.19748 166.199 8.19748C166.475 8.19748 167.467 8.16649 169.174 8.10453L169.353 8.34852C169.234 9.08439 169.133 10.134 169.05 11.4973L168.983 11.5902H168.568L168.466 11.4973L168.321 10.6142C168.276 10.2889 168.201 10.0255 168.096 9.82413C167.999 9.61499 167.853 9.46394 167.658 9.37099C167.463 9.27029 167.224 9.20445 166.94 9.17347C166.663 9.13474 166.288 9.11537 165.817 9.11537H161.966Z" fill="white"/>
<path d="M38.0543 37.7606H37.5683V32.5787H35.6588C35.5596 33.9501 35.4373 34.9969 35.2918 35.7191C35.1496 36.4378 34.9645 36.9672 34.7363 37.3075C34.5115 37.6443 34.2189 37.8127 33.8585 37.8127C33.7295 37.8127 33.6171 37.7988 33.5212 37.771V37.3023C33.5841 37.3231 33.6733 37.3335 33.7891 37.3335C34.1627 37.3335 34.4636 36.9204 34.6917 36.0941C34.9231 35.2643 35.0984 33.9328 35.2174 32.0996H38.0543V37.7606Z" fill="white"/>
<path d="M42.0525 32.0996V36.193L42.0227 37.2606L45.2217 32.0996H45.8763V37.7606H45.4052V33.6932L45.425 32.5996L42.2261 37.7606H41.5863V32.0996H42.0525Z" fill="white"/>
<path d="M50.43 34.5421C51.4054 34.5421 51.8931 34.1897 51.8931 33.4849C51.8931 33.1481 51.7807 32.8912 51.5558 32.7141C51.331 32.5371 51.0103 32.4485 50.5937 32.4485C50.3292 32.4485 50.0828 32.4815 49.8547 32.5475C49.6266 32.61 49.3819 32.702 49.1207 32.8235L48.9372 32.3964C49.5125 32.1256 50.0713 31.9902 50.6135 31.9902C51.2021 31.9902 51.6484 32.1187 51.9526 32.3756C52.2568 32.6325 52.4089 32.9884 52.4089 33.4432C52.4089 34.0994 52.0882 34.5178 51.4467 34.6983V34.7296C51.8468 34.8337 52.1378 35.0073 52.3196 35.2504C52.5015 35.4899 52.5924 35.7972 52.5924 36.1722C52.5924 36.6964 52.4089 37.1096 52.0419 37.4116C51.6782 37.7137 51.1723 37.8647 50.5243 37.8647C50.1738 37.8647 49.8531 37.83 49.5621 37.7606C49.2744 37.6877 49.0364 37.5922 48.8479 37.4741V36.9586C49.1885 37.1287 49.4827 37.245 49.7307 37.3075C49.9787 37.3665 50.2432 37.396 50.5243 37.396C51.0136 37.396 51.3938 37.2884 51.665 37.0731C51.9394 36.8544 52.0766 36.5437 52.0766 36.1409C52.0766 35.7486 51.946 35.4587 51.6848 35.2712C51.4236 35.0837 51.0318 34.99 50.5094 34.99H49.7605V34.5421H50.43Z" fill="white"/>
<path d="M56.1988 32.0996V36.193L56.169 37.2606L59.368 32.0996H60.0226V37.7606H59.5515V33.6932L59.5713 32.5996L56.3724 37.7606H55.7326V32.0996H56.1988Z" fill="white"/>
<path d="M64.0506 32.0996V34.5838H67.4727V32.0996H67.9587V37.7606H67.4727V35.0316H64.0506V37.7606H63.5596V32.0996H64.0506Z" fill="white"/>
<path d="M74.6649 32.5475H71.9867V37.7606H71.4957V32.0996H74.6649V32.5475Z" fill="white"/>
<path d="M82.3538 32.0996V34.5838H85.7759V32.0996H86.262V37.7606H85.7759V35.0316H82.3538V37.7606H81.8628V32.0996H82.3538Z" fill="white"/>
<path d="M91.9762 37.8647C91.1926 37.8647 90.5809 37.6113 90.1411 37.1044C89.7047 36.5975 89.4865 35.8875 89.4865 34.9744C89.4865 34.0717 89.6981 33.3495 90.1213 32.8079C90.5445 32.2628 91.1149 31.9902 91.8324 31.9902C92.4672 31.9902 92.9681 32.2229 93.3351 32.6881C93.7021 33.1533 93.8856 33.7852 93.8856 34.5838V35.0004H90.0023C90.0089 35.7781 90.1808 36.3718 90.5181 36.7815C90.8586 37.1912 91.3447 37.396 91.9762 37.396C92.2837 37.396 92.5531 37.3735 92.7846 37.3283C93.0193 37.2832 93.3153 37.186 93.6724 37.0367V37.5054C93.3682 37.6443 93.0871 37.738 92.8292 37.7866C92.5713 37.8387 92.287 37.8647 91.9762 37.8647ZM91.8324 32.4485C91.3133 32.4485 90.8966 32.6291 90.5825 32.9901C90.2684 33.3478 90.0849 33.8651 90.032 34.5421H93.3649C93.3649 33.8859 93.2293 33.3738 92.9582 33.0058C92.6871 32.6343 92.3118 32.4485 91.8324 32.4485Z" fill="white"/>
<path d="M101.499 39.6823H101.013V37.7606H96.887V39.6823H96.4009V37.271H96.758C97.2077 36.6079 97.5548 35.8389 97.7995 34.9639C98.0442 34.089 98.1731 33.1342 98.1864 32.0996H100.78V37.271H101.499V39.6823ZM100.289 37.271V32.5787H98.6129C98.5335 34.457 98.1004 36.0211 97.3135 37.271H100.289Z" fill="white"/>
<path d="M108.508 33.4641C108.508 33.8217 108.424 34.1029 108.255 34.3077C108.086 34.5091 107.812 34.6497 107.432 34.7296V34.766C107.865 34.8181 108.177 34.9501 108.369 35.1618C108.564 35.3702 108.662 35.6705 108.662 36.0628C108.662 36.6079 108.49 37.028 108.146 37.3231C107.805 37.6148 107.306 37.7606 106.648 37.7606H104.372V32.0996H106.658C107.273 32.0996 107.734 32.2159 108.042 32.4485C108.353 32.6811 108.508 33.0197 108.508 33.4641ZM108.141 36.0524C108.141 35.358 107.633 35.0108 106.618 35.0108H104.863V37.271H106.688C107.657 37.271 108.141 36.8648 108.141 36.0524ZM107.987 33.5057C107.987 33.1759 107.875 32.9415 107.65 32.8027C107.425 32.6603 107.088 32.5891 106.638 32.5891H104.863V34.5265H106.579C107.081 34.5265 107.442 34.4449 107.66 34.2817C107.878 34.1185 107.987 33.8599 107.987 33.5057Z" fill="white"/>
<path d="M112.318 32.0996V36.193L112.288 37.2606L115.487 32.0996H116.142V37.7606H115.67V33.6932L115.69 32.5996L112.491 37.7606H111.852V32.0996H112.318Z" fill="white"/>
<path d="M121.905 32.0996H122.401V34.8494L124.718 32.0996H125.318L122.982 34.8494L125.501 37.7606H124.871L122.401 34.891V37.7606H121.905V34.891L119.436 37.7606H118.806L121.315 34.8702L118.989 32.0996H119.589L121.905 34.8494V32.0996Z" fill="white"/>
<path d="M128.626 32.0996V36.193L128.597 37.2606L131.796 32.0996H132.45V37.7606H131.979V33.6932L131.999 32.5996L128.8 37.7606H128.16V32.0996H128.626Z" fill="white"/>
<path d="M138.497 37.2085L138.804 36.2972L140.357 32.0996H141.036V37.7606H140.57V32.7245C140.497 32.9433 140.419 33.1672 140.337 33.3964C140.257 33.6255 139.719 35.0802 138.72 37.7606H138.284L136.791 33.7817C136.728 33.622 136.668 33.4537 136.612 33.2766C136.559 33.0995 136.5 32.9086 136.434 32.7037V37.7606H135.987V32.0996H136.637L138.194 36.2659C138.317 36.6027 138.417 36.9169 138.497 37.2085Z" fill="white"/>
<path d="M149.027 34.9223C149.027 35.8458 148.814 36.568 148.387 37.0888C147.96 37.6061 147.372 37.8647 146.621 37.8647C146.149 37.8647 145.732 37.745 145.372 37.5054C145.011 37.2658 144.735 36.9221 144.543 36.4742C144.352 36.0263 144.256 35.509 144.256 34.9223C144.256 33.9987 144.469 33.2801 144.895 32.7662C145.322 32.2489 145.907 31.9902 146.651 31.9902C147.392 31.9902 147.972 32.2524 148.392 32.7766C148.815 33.2974 149.027 34.0126 149.027 34.9223ZM144.771 34.9223C144.771 35.7 144.933 36.3076 145.257 36.745C145.585 37.179 146.046 37.396 146.641 37.396C147.236 37.396 147.696 37.179 148.02 36.745C148.347 36.3076 148.511 35.7 148.511 34.9223C148.511 34.1411 148.346 33.5352 148.015 33.1047C147.688 32.6742 147.226 32.4589 146.631 32.4589C146.036 32.4589 145.577 32.6742 145.253 33.1047C144.932 33.5318 144.771 34.1376 144.771 34.9223Z" fill="white"/>
<path d="M154.399 37.8647C153.628 37.8647 153.025 37.6095 152.589 37.0992C152.152 36.5888 151.934 35.8771 151.934 34.9639C151.934 34.0265 152.16 33.2974 152.613 32.7766C153.066 32.2524 153.686 31.9902 154.473 31.9902C154.939 31.9902 155.386 32.0753 155.812 32.2454L155.678 32.7037C155.212 32.5405 154.807 32.4589 154.463 32.4589C153.802 32.4589 153.301 32.6742 152.961 33.1047C152.62 33.5318 152.45 34.148 152.45 34.9535C152.45 35.7173 152.62 36.3163 152.961 36.7502C153.301 37.1808 153.777 37.396 154.389 37.396C154.878 37.396 155.333 37.304 155.753 37.12V37.5991C155.409 37.7762 154.958 37.8647 154.399 37.8647Z" fill="white"/>
<path d="M162.226 32.5475H160.43V37.7606H159.944V32.5475H158.104V32.0996H162.226V32.5475Z" fill="white"/>
<path d="M165.53 32.0996V36.193L165.5 37.2606L168.699 32.0996H169.353V37.7606H168.882V33.6932L168.902 32.5996L165.703 37.7606H165.063V32.0996H165.53Z" fill="white"/>
<path fill-rule="evenodd" clip-rule="evenodd" d="M14.611 0.730957L21.3746 6.37525V37.9814H14.611V0.730957ZM7.81197 6.49369L7.2417 6.94924V37.9814H7.81197V6.49369ZM8.73589 5.66914L8.16562 6.14747V37.9814H8.73589V5.66914ZM9.65981 4.83092L9.09396 5.28648V37.9814H9.65981V4.83092ZM10.5881 4.00638L10.0179 4.46193V37.9814L10.5881 37.9814V4.0246V4.00638ZM11.5121 3.20005L10.9462 3.6556V37.9814H11.5121V3.20005ZM12.4404 2.3755L11.8701 2.85383V37.9814H12.4404V2.3755ZM13.3643 1.55551L12.7941 2.01106V37.9814H13.3643V1.53728V1.55551ZM14.2927 0.730957L13.7224 1.18651V37.9814H14.2927V0.730957Z" fill="white"/>
<path fill-rule="evenodd" clip-rule="evenodd" d="M14.1511 18.0668L19.1762 13.688V37.9818H14.1511V18.0668Z" fill="#226EC2"/>
<path fill-rule="evenodd" clip-rule="evenodd" d="M5.22793 14.9834L9.44016 18.4693V37.9815H5.22793V14.9834ZM0.998114 18.5191L0.646362 18.8134V37.9815H0.998114V18.501V18.5191ZM1.57411 18.0121L1.22236 18.3018V37.9815H1.57411V18.0121ZM2.1501 17.5005L1.79835 17.7948V37.9815H2.1501V17.5005ZM2.7261 16.9935L2.37434 17.2877V37.9815H2.7261V16.9935ZM3.30649 16.4864L2.95034 16.7943V37.9815H3.30649V16.4864ZM3.87369 15.9749L3.52193 16.2691V37.9815H3.87369V15.9749ZM4.45408 15.4678L4.09793 15.7621V37.9815H4.45408V15.4678ZM5.03447 14.9834L4.67832 15.2777V37.9815H5.03447V14.9834Z" fill="white"/>
<path fill-rule="evenodd" clip-rule="evenodd" d="M19.6792 14.9834L23.8871 18.468V37.9815H19.6792V14.9834ZM15.4494 18.5404L15.0933 18.8345V37.9815H15.4494V18.4996V18.5404ZM16.0254 18.0335L15.6693 18.3231V37.9815H16.0254V18.0109V18.0335ZM16.6014 17.5222L16.2452 17.8163V37.9815H16.6014V17.4995V17.5222ZM17.1774 17.0153L16.8212 17.3095V37.9815H17.1774V16.9927V17.0153ZM17.7534 16.5085L17.3972 16.8026V37.9815H17.7534V16.4858V16.5085ZM18.3294 15.9971L17.9732 16.2912V37.9815H18.3294V15.9745V15.9971ZM18.9054 15.4902L18.5492 15.7844V37.9815H18.9054V15.4676V15.4902ZM19.4814 14.9834L19.1252 15.2775V37.9815H19.4814V14.9834Z" fill="white"/>
<path fill-rule="evenodd" clip-rule="evenodd" d="M5.67139 25.7679L8.81203 23.0815V37.9817H5.67139V25.7679Z" fill="#226EC2"/>
</svg>
