<svg width="392" height="92" viewBox="0 0 392 92" fill="none" xmlns="http://www.w3.org/2000/svg">
<path d="M76.5946 17.8027C80.9773 17.9481 83.7687 18.0208 84.9688 18.0208C86.6036 18.0208 88.4384 17.9753 90.4733 17.8845C92.6299 17.8118 93.9603 17.7754 94.4647 17.7754C96.8996 17.7754 98.9083 18.0389 100.491 18.5659C102.091 19.093 103.413 20.0561 104.456 21.4554C105.5 22.8546 106.022 24.5447 106.022 26.5255C106.022 28.161 105.656 29.742 104.926 31.2685C104.195 32.795 103.178 34.0943 101.874 35.1665C100.569 36.2386 99.2475 37.011 97.9083 37.4834C96.5691 37.9378 95.1778 38.1649 93.7343 38.1649C92.656 38.1649 91.4559 38.0377 90.1341 37.7833L89.6906 36.1205L89.9254 35.8479C91.2298 36.1569 92.2907 36.3113 93.1081 36.3113C95.3865 36.3113 97.2126 35.5299 98.5866 33.9671C99.9779 32.3861 100.674 30.3689 100.674 27.9157C100.674 25.4442 99.9518 23.4725 98.5083 22.0005C97.0822 20.5286 94.9169 19.7926 92.0125 19.7926C90.4298 19.7926 88.6906 20.1015 86.7949 20.7194C86.6384 22.1187 86.5601 25.4987 86.5601 30.8596V43.4804L86.5862 48.7958C86.6036 50.8493 86.6558 52.1759 86.7427 52.7756C86.8297 53.3752 86.9514 53.775 87.108 53.9749C87.2819 54.1748 87.6036 54.3475 88.0732 54.4928C88.5428 54.6201 89.6993 54.72 91.5429 54.7927L91.7516 54.9562V56.3192L91.5429 56.5372C87.108 56.3919 84.6122 56.3192 84.0557 56.3192C83.4644 56.3192 80.9773 56.3919 76.5946 56.5372L76.3859 56.3192V54.9562L76.5946 54.7927C78.212 54.72 79.2903 54.6291 79.8295 54.5201C80.3686 54.4111 80.7251 54.2748 80.8991 54.1112C81.0904 53.9295 81.2382 53.557 81.3425 52.9936C81.4643 52.4303 81.5339 51.1764 81.5512 49.2319L81.5773 43.4804V30.8596L81.5252 25.5442C81.5078 23.4725 81.4556 22.1368 81.3686 21.5371C81.2991 20.9375 81.1773 20.5377 81.0034 20.3378C80.8469 20.1379 80.5338 19.9743 80.0642 19.8471C79.5947 19.7199 78.4381 19.62 76.5946 19.5473L76.3859 19.3565V17.9935L76.5946 17.8027Z" fill="#012A93"/>
<path d="M143.745 51.7125L142.753 54.2475C138.892 56.301 134.77 57.3277 130.388 57.3277C124.109 57.3277 119.005 55.4651 115.074 51.7397C111.161 48.0144 109.204 43.1442 109.204 37.1291C109.204 32.9858 110.178 29.3695 112.126 26.2801C114.091 23.1727 116.674 20.8557 119.874 19.3292C123.092 17.7845 126.701 17.0122 130.701 17.0122C133.014 17.0122 135.301 17.2666 137.562 17.7754C139.823 18.2843 141.71 18.8931 143.223 19.6018L143.405 19.8744C143.005 20.892 142.631 23.4089 142.284 27.425L142.101 27.6431H140.875L140.666 27.425L140.405 22.791C139.136 21.737 137.597 20.9193 135.788 20.3378C133.996 19.7381 132.127 19.4382 130.179 19.4382C127.24 19.4382 124.605 20.1015 122.274 21.4281C119.944 22.7365 118.135 24.6446 116.848 27.1524C115.561 29.642 114.918 32.695 114.918 36.3113C114.918 39.9458 115.674 43.1351 117.187 45.8791C118.7 48.6231 120.761 50.7312 123.37 52.2031C125.996 53.6751 129.057 54.4111 132.553 54.4111C134.101 54.4111 135.588 54.2566 137.014 53.9477C138.44 53.6387 139.623 53.2571 140.562 52.8028C141.518 52.3485 142.431 51.7942 143.301 51.14L143.745 51.7125Z" fill="#012A93"/>
<path d="M157.858 56.3192V54.9562L158.067 54.7927C159.493 54.7382 160.458 54.5655 160.963 54.2748C161.467 53.984 162.189 53.1572 163.128 51.7942C164.519 49.7589 167.424 45.3975 171.841 38.7101L178.885 28.1883C181.024 25.0081 182.268 23.1181 182.615 22.5185C182.841 22.1187 182.955 21.7643 182.955 21.4554C182.955 20.8738 182.607 20.4559 181.911 20.2015C181.233 19.9289 179.276 19.7108 176.041 19.5473L175.833 19.3565V17.9935L176.041 17.8027C176.354 17.8027 177.354 17.8391 179.041 17.9117C180.728 17.9844 182.25 18.0208 183.607 18.0208C184.981 18.0208 186.468 17.9844 188.068 17.9117L191.016 17.8027L191.198 17.9935C191.146 18.7749 191.111 19.7653 191.094 20.9647L191.016 25.4896V43.4804C191.016 44.9705 191.033 46.7696 191.068 48.8776C191.103 50.9856 191.155 52.3212 191.224 52.8846C191.294 53.4298 191.433 53.8205 191.642 54.0567C191.85 54.2748 192.259 54.4383 192.868 54.5474C193.494 54.6564 194.538 54.7382 195.998 54.7927L196.207 54.9562V56.3192L195.998 56.5372C195.877 56.5372 194.738 56.5009 192.581 56.4282C190.511 56.3555 189.137 56.3192 188.459 56.3192C188.094 56.3192 185.624 56.3919 181.05 56.5372L180.841 56.3192V54.9562L181.05 54.7927C182.546 54.7382 183.607 54.6564 184.233 54.5474C184.859 54.4383 185.268 54.2657 185.459 54.0294C185.65 53.775 185.772 53.3662 185.824 52.8028C185.894 52.2213 185.946 50.8493 185.981 48.6868C186.015 46.5061 186.033 44.7706 186.033 43.4804V21.3191H185.329L168.919 48.0325C167.093 51.0128 166.137 52.6483 166.05 52.9391C165.963 53.2117 165.919 53.4298 165.919 53.5933C165.919 54.302 166.45 54.6655 167.511 54.6837L169.441 54.7927L169.65 54.9562V56.3192L169.441 56.5372C167.684 56.3919 165.971 56.3192 164.302 56.3192C162.319 56.3192 160.241 56.3919 158.067 56.5372L157.858 56.3192Z" fill="#012A93"/>
<path d="M198.894 56.3192V54.9562L199.103 54.7927C200.633 54.7382 201.694 54.6564 202.286 54.5474C202.894 54.4383 203.294 54.2657 203.486 54.0294C203.677 53.7932 203.807 53.4116 203.877 52.8846C203.947 52.3394 203.999 50.9856 204.033 48.823C204.068 46.6424 204.086 44.8615 204.086 43.4804V30.8596C204.086 28.9697 204.06 26.9616 204.007 24.8354C203.973 22.7093 203.903 21.4554 203.799 21.0737C203.712 20.674 203.573 20.3923 203.381 20.2287C203.207 20.047 202.842 19.9016 202.286 19.7926C201.746 19.6836 200.686 19.6018 199.103 19.5473L198.894 19.3565V17.9935L199.103 17.8027C199.19 17.8027 200.329 17.8391 202.52 17.9117C204.59 17.9844 205.964 18.0208 206.642 18.0208C207.06 18.0208 209.529 17.9481 214.051 17.8027L214.26 17.9935V19.3565L214.051 19.5473C212.521 19.6018 211.451 19.6836 210.842 19.7926C210.251 19.9016 209.86 20.0743 209.668 20.3105C209.477 20.5286 209.347 20.9011 209.277 21.4281C209.208 21.9551 209.155 23.3362 209.121 25.5714C209.086 27.8066 209.068 29.5694 209.068 30.8596V51.7942L209.46 51.9851C213.129 46.4606 217.286 39.8822 221.93 32.2498C226.573 24.6174 229.417 19.8017 230.46 17.8027C232.287 17.9481 233.982 18.0208 235.548 18.0208C237.322 18.0208 239.009 17.9481 240.609 17.8027L240.817 17.9935V19.3565L240.609 19.5473C238.904 19.6018 237.791 19.6926 237.269 19.8198C236.765 19.9289 236.426 20.0743 236.252 20.256C236.078 20.4377 235.948 20.7466 235.861 21.1828C235.774 21.6189 235.713 22.9909 235.678 25.2988C235.643 27.6067 235.626 29.4603 235.626 30.8596V43.4804C235.626 44.9705 235.643 46.7786 235.678 48.9048C235.713 51.0128 235.765 52.3394 235.835 52.8846C235.904 53.4298 236.043 53.8205 236.252 54.0567C236.461 54.2748 236.869 54.4383 237.478 54.5474C238.104 54.6564 239.148 54.7291 240.609 54.7654L240.817 54.9562V56.3192L240.609 56.5372C240.522 56.5372 239.382 56.5009 237.191 56.4282C235.174 56.3555 233.8 56.3192 233.069 56.3192C232.6 56.3192 230.13 56.3919 225.66 56.5372L225.452 56.3192V54.9562L225.66 54.7654C227.191 54.7291 228.252 54.6564 228.843 54.5474C229.452 54.4202 229.852 54.2475 230.043 54.0294C230.234 53.8114 230.365 53.4388 230.434 52.9118C230.504 52.3667 230.556 50.9856 230.591 48.7685C230.626 46.5333 230.643 44.7706 230.643 43.4804L230.669 23.1454L230.147 22.9546C228.634 25.2625 225.121 30.8142 219.608 39.6096L209.121 56.5372C207.642 56.3919 205.929 56.3192 203.981 56.3192C202.625 56.3192 200.999 56.3919 199.103 56.5372L198.894 56.3192Z" fill="#012A93"/>
<path d="M252.322 35.7116C252.339 34.8939 252.348 34.4305 252.348 34.3214C252.348 34.1397 252.339 33.8671 252.322 33.5037L252.687 33.1493C253.679 33.2584 254.583 33.3129 255.4 33.3129C257.053 33.3129 258.374 33.0585 259.366 32.5496C260.357 32.0226 261.166 31.1685 261.792 29.9873C262.418 28.8061 262.731 27.4432 262.731 25.8985C262.731 23.8269 262.14 22.1732 260.957 20.9375C259.774 19.7017 258.027 19.0839 255.713 19.0839C253.452 19.0839 251.644 19.7199 250.287 20.992C248.931 22.264 248 24.2539 247.496 26.9616L247.209 27.2615H246.791L246.504 26.9616C246.417 24.9081 246.278 22.9182 246.087 20.992C247.809 19.6654 249.531 18.7295 251.252 18.1843C252.992 17.6392 254.931 17.3666 257.07 17.3666C260.635 17.3666 263.348 18.0117 265.209 19.3019C267.07 20.574 268.001 22.4367 268.001 24.89C268.001 27.1797 267.236 29.106 265.705 30.6688C264.175 32.2316 262.105 33.2947 259.496 33.858V34.3214C262.644 34.3214 265.018 34.6122 266.618 35.1937C268.236 35.7752 269.505 36.8202 270.427 38.3285C271.349 39.8368 271.81 41.6449 271.81 43.7529C271.81 47.5146 270.47 50.6585 267.792 53.1844C265.114 55.7104 261.322 56.9734 256.418 56.9734C254.157 56.9734 252.113 56.7281 250.287 56.2374C248.478 55.7286 246.887 54.8381 245.513 53.5661C245.652 51.4762 245.722 50.0043 245.722 49.1502C245.722 48.714 245.696 47.3056 245.644 44.9251L246.687 44.5162L246.974 44.7615C247.774 48.3596 248.896 50.9674 250.339 52.5847C251.8 54.1839 253.809 54.9835 256.366 54.9835C258.209 54.9835 259.844 54.5474 261.27 53.6751C262.696 52.7846 263.801 51.4762 264.583 49.7498C265.366 48.0053 265.757 46.188 265.757 44.2981C265.757 41.6449 265.018 39.5369 263.54 37.9741C262.079 36.3931 259.792 35.6026 256.679 35.6026C255.392 35.6026 254.061 35.7662 252.687 36.0933L252.322 35.7116Z" fill="#012A93"/>
<path d="M275.905 56.3192V54.9562L276.114 54.7927C277.645 54.7382 278.705 54.6564 279.297 54.5474C279.905 54.4383 280.305 54.2657 280.497 54.0294C280.688 53.7932 280.819 53.4116 280.888 52.8846C280.958 52.3394 281.01 50.9856 281.045 48.823C281.079 46.6424 281.097 44.8615 281.097 43.4804V30.8596C281.097 28.9697 281.071 26.9616 281.019 24.8354C280.984 22.7093 280.914 21.4554 280.81 21.0737C280.723 20.674 280.584 20.3923 280.392 20.2287C280.219 20.047 279.853 19.9016 279.297 19.7926C278.758 19.6836 277.697 19.6018 276.114 19.5473L275.905 19.3565V17.9935L276.114 17.8027C276.201 17.8027 277.34 17.8391 279.532 17.9117C281.601 17.9844 282.975 18.0208 283.653 18.0208C284.071 18.0208 286.54 17.9481 291.062 17.8027L291.271 17.9935V19.3565L291.062 19.5473C289.532 19.6018 288.462 19.6836 287.854 19.7926C287.262 19.9016 286.871 20.0743 286.68 20.3105C286.488 20.5286 286.358 20.9011 286.288 21.4281C286.219 21.9551 286.167 23.3362 286.132 25.5714C286.097 27.8066 286.08 29.5694 286.08 30.8596V51.7942L286.471 51.9851C290.141 46.4606 294.297 39.8822 298.941 32.2498C303.585 24.6174 306.428 19.8017 307.472 17.8027C309.298 17.9481 310.993 18.0208 312.559 18.0208C314.333 18.0208 316.02 17.9481 317.62 17.8027L317.828 17.9935V19.3565L317.62 19.5473C315.915 19.6018 314.802 19.6926 314.281 19.8198C313.776 19.9289 313.437 20.0743 313.263 20.256C313.089 20.4377 312.959 20.7466 312.872 21.1828C312.785 21.6189 312.724 22.9909 312.689 25.2988C312.654 27.6067 312.637 29.4603 312.637 30.8596V43.4804C312.637 44.9705 312.654 46.7786 312.689 48.9048C312.724 51.0128 312.776 52.3394 312.846 52.8846C312.915 53.4298 313.054 53.8205 313.263 54.0567C313.472 54.2748 313.88 54.4383 314.489 54.5474C315.115 54.6564 316.159 54.7291 317.62 54.7654L317.828 54.9562V56.3192L317.62 56.5372C317.533 56.5372 316.394 56.5009 314.202 56.4282C312.185 56.3555 310.811 56.3192 310.08 56.3192C309.611 56.3192 307.141 56.3919 302.671 56.5372L302.463 56.3192V54.9562L302.671 54.7654C304.202 54.7291 305.263 54.6564 305.854 54.5474C306.463 54.4202 306.863 54.2475 307.054 54.0294C307.245 53.8114 307.376 53.4388 307.446 52.9118C307.515 52.3667 307.567 50.9856 307.602 48.7685C307.637 46.5333 307.654 44.7706 307.654 43.4804L307.68 23.1454L307.159 22.9546C305.645 25.2625 302.132 30.8142 296.619 39.6096L286.132 56.5372C284.653 56.3919 282.94 56.3192 280.992 56.3192C279.636 56.3192 278.01 56.3919 276.114 56.5372L275.905 56.3192Z" fill="#012A93"/>
<path d="M320.672 17.8027C325.107 17.9481 327.594 18.0208 328.133 18.0208C328.707 18.0208 331.203 17.9481 335.62 17.8027L335.829 17.9935V19.3565L335.62 19.5473C334.42 19.5836 333.49 19.6381 332.829 19.7108C332.185 19.7835 331.716 19.9198 331.42 20.1197C331.125 20.3196 330.925 20.7921 330.82 21.5371C330.733 22.264 330.69 23.2817 330.69 24.5901L330.638 30.8596V34.6758C334.446 34.7848 338.055 34.8394 341.464 34.8394C346.125 34.8394 349.673 34.7848 352.108 34.6758V30.8596L352.056 25.5442C352.038 23.4725 351.986 22.1368 351.899 21.5371C351.812 20.9375 351.69 20.5377 351.534 20.3378C351.377 20.1379 351.064 19.9743 350.595 19.8471C350.125 19.7199 348.96 19.62 347.099 19.5473L346.916 19.3565V17.9935L347.099 17.8027C351.551 17.9481 354.047 18.0208 354.586 18.0208C355.177 18.0208 357.673 17.9481 362.073 17.8027L362.282 17.9935V19.3565L362.073 19.5473C360.856 19.5836 359.917 19.6381 359.256 19.7108C358.612 19.7835 358.143 19.9198 357.847 20.1197C357.551 20.3196 357.36 20.7921 357.273 21.5371C357.186 22.264 357.134 23.2817 357.117 24.5901L357.065 30.8596V43.4804L357.117 48.7958C357.134 50.8493 357.186 52.1759 357.273 52.7756C357.36 53.3752 357.482 53.775 357.638 53.9749C357.812 54.1748 358.125 54.3475 358.578 54.4928C359.047 54.6201 360.212 54.72 362.073 54.7927L362.282 54.9562V56.3192L362.073 56.5372C357.621 56.3919 355.125 56.3192 354.586 56.3192C354.03 56.3192 351.534 56.3919 347.099 56.5372L346.916 56.3192V54.9562L347.099 54.7927C348.734 54.72 349.821 54.6291 350.36 54.5201C350.899 54.4111 351.256 54.2748 351.43 54.1112C351.603 53.9295 351.751 53.557 351.873 52.9936C351.995 52.4303 352.056 51.1764 352.056 49.2319L352.108 43.4804V37.2654C346.96 37.1563 343.351 37.1018 341.281 37.1018C339.16 37.1018 335.612 37.1563 330.638 37.2654V43.4804L330.664 48.7958C330.681 50.8493 330.733 52.1759 330.82 52.7756C330.907 53.3752 331.029 53.775 331.185 53.9749C331.359 54.1748 331.681 54.3475 332.151 54.4928C332.62 54.6201 333.777 54.72 335.62 54.7927L335.829 54.9562V56.3192L335.62 56.5372C331.185 56.3919 328.69 56.3192 328.133 56.3192C327.594 56.3192 325.107 56.3919 320.672 56.5372L320.463 56.3192V54.9562L320.672 54.7927C322.289 54.72 323.368 54.6291 323.907 54.5201C324.446 54.4111 324.803 54.2748 324.977 54.1112C325.168 53.9295 325.316 53.557 325.42 52.9936C325.542 52.4303 325.611 51.1764 325.629 49.2319L325.655 43.4804V30.8596L325.603 25.5442C325.585 23.4725 325.533 22.1368 325.446 21.5371C325.377 20.9375 325.255 20.5377 325.081 20.3378C324.924 20.1379 324.611 19.9743 324.142 19.8471C323.672 19.7199 322.516 19.62 320.672 19.5473L320.463 19.3565V17.9935L320.672 17.8027Z" fill="#012A93"/>
<path d="M374.83 20.1742V43.4804C374.83 44.8796 374.848 46.6605 374.882 48.823C374.917 50.9856 374.969 52.3394 375.039 52.8846C375.109 53.4298 375.239 53.8205 375.43 54.0567C375.639 54.2748 376.048 54.4383 376.656 54.5474C377.283 54.6564 378.335 54.7382 379.813 54.7927L380.022 54.9562V56.3192L379.813 56.5372C377.048 56.3919 374.535 56.3192 372.274 56.3192C369.856 56.3192 367.387 56.3919 364.865 56.5372L364.656 56.3192V54.9562L364.865 54.7927C366.395 54.7382 367.456 54.6564 368.047 54.5474C368.656 54.4383 369.056 54.2657 369.247 54.0294C369.439 53.7932 369.569 53.4116 369.639 52.8846C369.708 52.3394 369.761 50.9856 369.795 48.823C369.83 46.6424 369.848 44.8615 369.848 43.4804V30.8596C369.848 29.006 369.821 27.0161 369.769 24.89C369.734 22.7456 369.665 21.4735 369.561 21.0737C369.474 20.674 369.334 20.3923 369.143 20.2287C368.969 20.047 368.613 19.9107 368.074 19.8198C367.552 19.7108 366.482 19.62 364.865 19.5473L364.656 19.3565V17.9935L364.865 17.8027C367.317 17.9481 373.917 18.0208 384.665 18.0208C385.309 18.0208 387.613 17.9481 391.579 17.8027L391.996 18.3751C391.718 20.1015 391.483 22.5639 391.292 25.7622L391.135 25.9803H390.17L389.935 25.7622L389.596 23.6906C389.492 22.9273 389.318 22.3095 389.074 21.837C388.848 21.3463 388.509 20.992 388.057 20.7739C387.605 20.5377 387.048 20.3832 386.387 20.3105C385.744 20.2196 384.874 20.1742 383.778 20.1742H374.83Z" fill="#012A93"/>
<path d="M86.9185 87.3759H85.7892V75.219H81.3526C81.1221 78.4364 80.8379 80.8922 80.4998 82.5865C80.1695 84.2726 79.7393 85.5147 79.2092 86.313C78.6868 87.1031 78.0069 87.4981 77.1695 87.4981C76.8699 87.4981 76.6087 87.4655 76.3859 87.4004V86.3007C76.5318 86.3496 76.7393 86.3741 77.0081 86.3741C77.8763 86.3741 78.5754 85.4048 79.1055 83.4662C79.6432 81.5194 80.0504 78.3957 80.327 74.095H86.9185V87.3759Z" fill="#012A93"/>
<path d="M96.2085 74.095V83.6983L96.1394 86.203L103.572 74.095H105.093V87.3759H103.999V77.8337L104.045 75.2679L96.6118 87.3759H95.1253V74.095H96.2085Z" fill="#012A93"/>
<path d="M115.674 79.8252C117.94 79.8252 119.073 78.9985 119.073 77.3449C119.073 76.5548 118.812 75.9521 118.29 75.5367C117.767 75.1213 117.022 74.9136 116.054 74.9136C115.44 74.9136 114.867 74.9909 114.337 75.1457C113.807 75.2923 113.239 75.5082 112.632 75.7933L112.205 74.7914C113.542 74.156 114.84 73.8384 116.1 73.8384C117.468 73.8384 118.505 74.1398 119.212 74.7425C119.918 75.3453 120.272 76.1802 120.272 77.2472C120.272 78.7867 119.527 79.7682 118.036 80.1917V80.2651C118.966 80.5094 119.642 80.9167 120.064 81.4869C120.487 82.0489 120.698 82.7697 120.698 83.6494C120.698 84.8794 120.272 85.8487 119.419 86.5573C118.574 87.266 117.399 87.6203 115.893 87.6203C115.079 87.6203 114.333 87.5388 113.657 87.3759C112.989 87.2049 112.436 86.9809 111.998 86.7039V85.4944C112.789 85.8935 113.473 86.1663 114.049 86.313C114.625 86.4514 115.24 86.5207 115.893 86.5207C117.03 86.5207 117.913 86.2682 118.543 85.7632C119.181 85.25 119.5 84.521 119.5 83.5761C119.5 82.6557 119.196 81.9756 118.589 81.5357C117.982 81.0959 117.072 80.876 115.858 80.876H114.118V79.8252H115.674Z" fill="#012A93"/>
<path d="M129.078 74.095V83.6983L129.009 86.203L136.441 74.095H137.963V87.3759H136.868V77.8337L136.914 75.2679L129.481 87.3759H127.995V74.095H129.078Z" fill="#012A93"/>
<path d="M147.322 74.095V79.9229H155.273V74.095H156.402V87.3759H155.273V80.9737H147.322V87.3759H146.181V74.095H147.322Z" fill="#012A93"/>
<path d="M171.984 75.1457H165.762V87.3759H164.621V74.095H171.984V75.1457Z" fill="#012A93"/>
<path d="M189.85 74.095V79.9229H197.801V74.095H198.93V87.3759H197.801V80.9737H189.85V87.3759H188.709V74.095H189.85Z" fill="#012A93"/>
<path d="M212.208 87.6203C210.387 87.6203 208.966 87.0257 207.944 85.8365C206.93 84.6472 206.423 82.9815 206.423 80.8393C206.423 78.7215 206.914 77.0273 207.898 75.7566C208.881 74.4778 210.206 73.8384 211.873 73.8384C213.348 73.8384 214.512 74.3841 215.365 75.4756C216.218 76.5671 216.644 78.0495 216.644 79.9229V80.9004H207.621C207.637 82.7249 208.036 84.1178 208.82 85.0789C209.611 86.0401 210.74 86.5207 212.208 86.5207C212.922 86.5207 213.548 86.4677 214.086 86.3618C214.631 86.2559 215.319 86.0279 216.149 85.6776V86.7772C215.442 87.1031 214.789 87.323 214.19 87.437C213.59 87.5592 212.93 87.6203 212.208 87.6203ZM211.873 74.9136C210.667 74.9136 209.699 75.3371 208.969 76.1842C208.24 77.0232 207.813 78.2369 207.69 79.8252H215.434C215.434 78.2857 215.119 77.0843 214.489 76.2209C213.859 75.3493 212.987 74.9136 211.873 74.9136Z" fill="#012A93"/>
<path d="M234.335 91.8844H233.206V87.3759H223.618V91.8844H222.489V86.2274H223.318C224.363 84.6717 225.17 82.8675 225.738 80.8149C226.307 78.7622 226.606 76.5223 226.637 74.095H232.664V86.2274H234.335V91.8844ZM231.523 86.2274V75.219H227.628C227.444 79.6256 226.437 83.2951 224.609 86.2274H231.523Z" fill="#012A93"/>
<path d="M250.62 77.2961C250.62 78.135 250.424 78.7948 250.032 79.2754C249.64 79.7478 249.003 80.0777 248.119 80.2651V80.3506C249.126 80.4728 249.852 80.7823 250.297 81.2791C250.75 81.7679 250.977 82.4724 250.977 83.3929C250.977 84.6717 250.578 85.6573 249.779 86.3496C248.987 87.0338 247.827 87.3759 246.298 87.3759H241.009V74.095H246.322C247.75 74.095 248.822 74.3678 249.537 74.9136C250.259 75.4593 250.62 76.2535 250.62 77.2961ZM249.767 83.3684C249.767 81.7394 248.588 80.9248 246.229 80.9248H242.15V86.2274H246.391C248.642 86.2274 249.767 85.2744 249.767 83.3684ZM249.41 77.3938C249.41 76.62 249.149 76.0702 248.626 75.7444C248.104 75.4104 247.32 75.2434 246.275 75.2434H242.15V79.7885H246.137C247.305 79.7885 248.142 79.5971 248.649 79.2143C249.156 78.8315 249.41 78.2246 249.41 77.3938Z" fill="#012A93"/>
<path d="M259.472 74.095V83.6983L259.403 86.203L266.836 74.095H268.357V87.3759H267.262V77.8337L267.308 75.2679L259.875 87.3759H258.389V74.095H259.472Z" fill="#012A93"/>
<path d="M281.749 74.095H282.901V80.5461L288.283 74.095H289.677L284.25 80.5461L290.104 87.3759H288.64L282.901 80.6438V87.3759H281.749V80.6438L276.01 87.3759H274.547L280.378 80.5949L274.973 74.095H276.368L281.749 80.5461V74.095Z" fill="#012A93"/>
<path d="M297.366 74.095V83.6983L297.296 86.203L304.729 74.095H306.25V87.3759H305.156V77.8337L305.202 75.2679L297.769 87.3759H296.282V74.095H297.366Z" fill="#012A93"/>
<path d="M320.3 86.0808L321.014 83.9427L324.621 74.095H326.2V87.3759H325.117V75.5611C324.948 76.0743 324.767 76.5996 324.575 77.1372C324.391 77.6748 323.138 81.0877 320.818 87.3759H319.804L316.335 78.0414C316.189 77.6667 316.051 77.2716 315.921 76.8562C315.798 76.4408 315.659 75.9928 315.506 75.5122V87.3759H314.469V74.095H315.978L319.597 83.8694C319.881 84.6595 320.115 85.3966 320.3 86.0808Z" fill="#012A93"/>
<path d="M344.766 80.7171C344.766 82.8838 344.271 84.578 343.28 85.7998C342.289 87.0135 340.921 87.6203 339.177 87.6203C338.079 87.6203 337.111 87.3393 336.273 86.7772C335.436 86.2152 334.794 85.4088 334.349 84.3581C333.903 83.3073 333.681 82.0937 333.681 80.7171C333.681 78.5505 334.176 76.8644 335.167 75.6589C336.158 74.4452 337.518 73.8384 339.246 73.8384C340.967 73.8384 342.316 74.4534 343.291 75.6833C344.275 76.9051 344.766 78.583 344.766 80.7171ZM334.879 80.7171C334.879 82.5417 335.255 83.9671 336.008 84.9934C336.769 86.0116 337.841 86.5207 339.223 86.5207C340.606 86.5207 341.674 86.0116 342.427 84.9934C343.188 83.9671 343.568 82.5417 343.568 80.7171C343.568 78.8844 343.184 77.4631 342.415 76.453C341.655 75.443 340.583 74.938 339.2 74.938C337.818 74.938 336.75 75.443 335.997 76.453C335.252 77.4549 334.879 78.8763 334.879 80.7171Z" fill="#012A93"/>
<path d="M357.248 87.6203C355.458 87.6203 354.056 87.0216 353.042 85.8242C352.028 84.6269 351.521 82.9571 351.521 80.8149C351.521 78.6156 352.047 76.9051 353.1 75.6833C354.152 74.4534 355.593 73.8384 357.421 73.8384C358.504 73.8384 359.542 74.0379 360.533 74.4371L360.221 75.5122C359.138 75.1294 358.197 74.938 357.398 74.938C355.862 74.938 354.698 75.443 353.906 76.453C353.115 77.4549 352.72 78.9007 352.72 80.7904C352.72 82.5824 353.115 83.9875 353.906 85.0056C354.698 86.0157 355.804 86.5207 357.225 86.5207C358.362 86.5207 359.419 86.3048 360.394 85.8731V86.9972C359.595 87.4126 358.547 87.6203 357.248 87.6203Z" fill="#012A93"/>
<path d="M375.435 75.1457H371.263V87.3759H370.134V75.1457H365.858V74.095H375.435V75.1457Z" fill="#012A93"/>
<path d="M383.111 74.095V83.6983L383.042 86.203L390.475 74.095H391.996V87.3759H390.901V77.8337L390.947 75.2679L383.515 87.3759H382.028V74.095H383.111Z" fill="#012A93"/>
<path fill-rule="evenodd" clip-rule="evenodd" d="M32.4472 0.50293L48.1626 13.7448V87.8947H32.4472V0.50293ZM16.6495 14.0226L15.3245 15.0914V87.8947H16.6495V14.0226ZM18.7963 12.0882L17.4712 13.2104V87.8947H18.7963V12.0882ZM20.943 10.1217L19.6282 11.1904V87.8947H20.943V10.1217ZM23.1 8.18725L21.775 9.256V87.8947H23.1V8.23V8.18725ZM25.2468 6.29556L23.932 7.36431V87.8947H25.2468V6.29556ZM27.4038 4.36112L26.0788 5.48331V87.8947H27.4038V4.36112ZM29.5506 2.43737L28.2255 3.50612V87.8947H29.5506V2.39462V2.43737ZM31.7076 0.50293L30.3826 1.57168V87.8947H31.7076V0.50293Z" fill="#012A93"/>
<path fill-rule="evenodd" clip-rule="evenodd" d="M31.3787 41.1739L43.0545 30.9009V87.8955H31.3787V41.1739Z" fill="white"/>
<path fill-rule="evenodd" clip-rule="evenodd" d="M10.6454 33.939L20.4327 42.1172V87.8939H10.6454V33.939ZM0.817306 42.234L0 42.9244V87.8939H0.817306V42.1915V42.234ZM2.15564 41.0444L1.33834 41.7242V87.8939H2.15564V41.0444ZM3.49398 39.8443L2.67668 40.5346V87.8939H3.49398V39.8443ZM4.83232 38.6547L4.01502 39.3451V87.8939H4.83232V38.6547ZM6.18088 37.4652L5.35336 38.1874V87.8939H6.18088V37.4652ZM7.49878 36.265L6.68148 36.9553V87.8939H7.49878V36.265ZM8.84734 35.0754L8.01982 35.7658V87.8939H8.84734V35.0754ZM10.1959 33.939L9.36837 34.6293V87.8939H10.1959V33.939Z" fill="#012A93"/>
<path fill-rule="evenodd" clip-rule="evenodd" d="M44.2235 33.939L54.0005 42.1139V87.8939H44.2235V33.939ZM34.3954 42.2838L33.5679 42.9739V87.8939H34.3954V42.1883V42.2838ZM35.7337 41.0947L34.9062 41.7742V87.8939H35.7337V41.0416V41.0947ZM37.0721 39.895L36.2445 40.5851V87.8939H37.0721V39.8419V39.895ZM38.4104 38.7059L37.5829 39.396V87.8939H38.4104V38.6529V38.7059ZM39.7487 37.5168L38.9212 38.2069V87.8939H39.7487V37.4638V37.5168ZM41.0871 36.3171L40.2596 37.0072V87.8939H41.0871V36.2641V36.3171ZM42.4254 35.1281L41.5979 35.8182V87.8939H42.4254V35.075V35.1281ZM43.7638 33.939L42.9362 34.6291V87.8939H43.7638V33.939Z" fill="#012A93"/>
<path fill-rule="evenodd" clip-rule="evenodd" d="M11.6758 59.2407L18.9732 52.9385V87.8952H11.6758V59.2407Z" fill="white"/>
</svg>
